<svg fill="none" height="400" viewBox="0 0 400 400" width="400" xmlns="http://www.w3.org/2000/svg" xmlns:xlink="http://www.w3.org/1999/xlink"><mask id="a" height="400" maskUnits="userSpaceOnUse" width="400" x="0" y="0"><path clip-rule="evenodd" d="m34.4262 0h330.6868c18.976 0 34.426 15.5256 34.426 34.4262v330.6868c0 18.976-15.525 34.426-34.426 34.426h-330.6868c-18.9006.075-34.4262-15.45-34.4262-34.426v-330.6868c0-18.9006 15.5256-34.4262 34.4262-34.4262z" fill="#fff" fill-rule="evenodd"/></mask><rect fill="#f36f21" height="400" rx="3" width="400"/><g mask="url(#a)"><path clip-rule="evenodd" d="m52.94 186.168-8.5338-1.84-1.8884-8.523-8.3079 2.672-5.8933-6.435-5.8639 6.469-8.3238-2.627-1.8432 8.527-8.52246 1.889 2.67217 8.312-6.43541 5.895 6.46703 5.86-2.62703 8.324 8.5316 1.838 1.8861 8.525 8.3147-2.667 5.8933 6.433 5.8594-6.467 8.326 2.627 1.8432-8.53 8.5203-1.893-2.6743-8.31 6.442-5.893-6.4716-5.862zm-24.5601-5.391c-10.8514 0-19.67895 8.829-19.67895 19.674 0 10.851 8.82755 19.679 19.67895 19.679 10.8469 0 19.6743-8.828 19.6743-19.679 0-10.845-8.8274-19.674-19.6743-19.674zm-12.4077 7.393c6.8486-6.849 17.9891-6.849 24.8335-.002 6.8419 6.844 6.8442 17.982-.0023 24.831-6.8442 6.844-17.9825 6.844-24.8289-.002-6.84653-6.847-6.84653-17.983-.0023-24.827zm166.5308 3.102v14.918c0 2.896-.449 4.976-1.357 6.245-.913 1.263-2.393 1.902-4.419 1.902-1.786 0-3.036-.585-3.738-1.737-.703-1.158-1.053-2.907-1.053-5.258v-16.07h-7.465v17.504c0 1.762.156 3.366.452 4.811.296 1.453.811 2.679 1.545 3.689.738 1.012 1.741 1.789 3.024 2.34s2.914.829 4.92.829c1.577 0 3.115-.368 4.628-1.102 1.412-.691 2.575-1.809 3.504-3.314v3.698h7.433v-28.455zm-103.8516 13.634 5.2968-14.398 5.1885 14.398zm9.7536-24.07h-8.85l-14.8385 39.238h8.3531l3.228-8.774h15.1475l3.1625 8.774h8.4684zm59.62 15.555c-1.244 0-2.295.289-3.128.854-.852.567-1.541 1.301-2.067 2.204-.535.895-.906 1.884-1.129 2.971-.226 1.079-.328 2.155-.328 3.218 0 1.026.102 2.069.328 3.138.223 1.059.58 2.024 1.073 2.889.492.861 1.169 1.567 2.005 2.119.852.553 1.871.824 3.088.824 1.873 0 3.303-.521 4.312-1.57 1.01-1.046 1.645-2.448 1.907-4.208h7.537c-.517 3.777-1.985 6.655-4.407 8.642-2.417 1.979-5.516 2.973-9.292 2.973-2.133 0-4.082-.364-5.862-1.073-1.78-.716-3.291-1.717-4.543-3.002-1.251-1.285-2.222-2.817-2.916-4.594-.702-1.78-1.046-3.736-1.046-5.862 0-2.205.319-4.244.96-6.139.642-1.887 1.591-3.524 2.838-4.9 1.24-1.373 2.769-2.446 4.569-3.219 1.791-.768 3.849-1.152 6.165-1.152 1.682 0 3.311.217 4.867.66 1.557.44 2.955 1.107 4.181 2.008 1.227.903 2.225 2.019 3 3.357.775 1.341 1.211 2.925 1.326 4.761h-7.653c-.519-3.264-2.446-4.899-5.785-4.899zm-30.909 0c-1.253 0-2.295.289-3.13.854-.85.567-1.539 1.301-2.063 2.204-.546.895-.912 1.884-1.138 2.971-.215 1.059-.323 2.137-.323 3.218 0 1.026.104 2.069.323 3.138.226 1.059.585 2.024 1.075 2.889.495.861 1.166 1.567 2.011 2.119.847.553 1.87.824 3.09.824 1.868 0 3.297-.521 4.309-1.57 1.012-1.046 1.638-2.448 1.904-4.208h7.538c-.519 3.777-1.985 6.655-4.404 8.642-2.424 1.979-5.521 2.973-9.302 2.973-2.126 0-4.075-.364-5.855-1.073-1.787-.716-3.296-1.717-4.54-3.002-1.256-1.285-2.232-2.817-2.921-4.594-.698-1.78-1.05-3.736-1.05-5.862 0-2.205.32-4.244.96-6.139.641-1.887 1.597-3.524 2.837-4.9 1.247-1.373 2.778-2.446 4.574-3.219 1.791-.768 3.844-1.152 6.166-1.152 1.683 0 3.305.217 4.861.66 1.557.44 2.962 1.107 4.188 2.008 1.227.903 2.228 2.019 2.995 3.357.78 1.341 1.218 2.925 1.326 4.761h-7.648c-.515-3.264-2.444-4.899-5.783-4.899zm272.003-4.733v5.279h.109c.363-.881.86-1.697 1.486-2.449.614-.744 1.336-1.392 2.141-1.922.807-.533 1.667-.942 2.584-1.236.915-.296 1.866-.443 2.858-.443.513 0 1.077.095 1.703.276v7.255c-.368-.074-.806-.135-1.319-.194-.515-.052-1.005-.081-1.482-.081-1.43 0-2.643.239-3.63.716-.989.476-1.784 1.127-2.392 1.949-.603.825-1.03 1.785-1.292 2.887-.255 1.098-.382 2.293-.382 3.573v12.806h-7.806v-28.416zm-19.874 6.65c-.933-1.024-2.354-1.539-4.26-1.539-1.244 0-2.279.213-3.104.635-.824.418-1.486.94-1.981 1.561-.492.628-.844 1.285-1.043 1.979-.203.702-.323 1.321-.357 1.872h12.697c-.368-1.979-1.017-3.481-1.952-4.508zm-8.821 14.949c1.17 1.138 2.86 1.703 5.056 1.703 1.576 0 2.932-.393 4.068-1.182 1.131-.788 1.829-1.619 2.087-2.498h6.869c-1.098 3.407-2.783 5.842-5.055 7.31-2.273 1.463-5.022 2.198-8.245 2.198-2.234 0-4.251-.36-6.045-1.071-1.795-.714-3.315-1.735-4.56-3.05-1.247-1.323-2.207-2.898-2.887-4.727-.68-1.834-1.016-3.849-1.016-6.045 0-2.128.35-4.104 1.041-5.938.698-1.83 1.687-3.416 2.97-4.753 1.283-1.339 2.812-2.39 4.59-3.162 1.78-.77 3.748-1.155 5.907-1.155 2.419 0 4.525.47 6.32 1.405 1.798.931 3.271 2.189 4.423 3.764 1.157 1.574 1.99 3.37 2.501 5.387.517 2.013.7 4.12.551 6.316h-20.499c.111 2.53.748 4.361 1.924 5.498zm-31.228-32.426v14.784h.165c.987-1.649 2.254-2.846 3.79-3.601 1.539-.75 3.043-1.127 4.507-1.127 2.089 0 3.804.287 5.143.854 1.333.569 2.388 1.357 3.156 2.36.772 1.01 1.312 2.239 1.621 3.684.312 1.448.466 3.052.466 4.809v17.479h-7.8v-16.049c0-2.344-.368-4.095-1.1-5.249-.732-1.152-2.037-1.73-3.903-1.73-2.126 0-3.664.63-4.615 1.895-.953 1.262-1.43 3.345-1.43 6.239v14.894h-7.433v-39.242zm-11.971 10.827v5.222h-5.717v14.068c0 1.319.221 2.198.659 2.638.441.439 1.319.66 2.639.66.44 0 .86-.018 1.267-.059.387-.031.771-.085 1.152-.162v6.049c-.662.11-1.392.18-2.2.216-.807.039-1.595.055-2.363.055-1.209 0-2.354-.082-3.433-.249-1.085-.165-2.036-.483-2.86-.957-.827-.479-1.473-1.157-1.95-2.036-.476-.878-.713-2.033-.713-3.465v-16.758h-4.726v-5.222h4.726v-8.518h7.802v8.518zm-29.601 14.834c-.521.173-1.053.311-1.593.413-.592.114-1.189.205-1.788.274-.626.072-1.249.164-1.869.275-.585.109-1.163.258-1.73.441-.569.183-1.066.429-1.486.738-.42.314-.761.71-1.017 1.186-.257.477-.384 1.08-.384 1.814 0 .694.127 1.281.384 1.76.256.472.606.849 1.048 1.122.436.276.949.468 1.537.576.585.113 1.19.165 1.813.165 1.536 0 2.727-.255 3.572-.768.844-.512 1.468-1.127 1.87-1.843.402-.714.648-1.436.738-2.168.095-.735.141-1.322.141-1.758v-2.914c-.333.294-.744.522-1.236.687zm-15.417-11.016c.807-1.213 1.832-2.182 3.075-2.916 1.249-.73 2.647-1.254 4.206-1.566 1.558-.309 3.124-.47 4.703-.47 1.427 0 2.873.102 4.336.305 1.469.201 2.804.597 4.014 1.179 1.209.588 2.2 1.403 2.968 2.447.769 1.046 1.152 2.43 1.152 4.149v14.789c0 1.28.077 2.507.224 3.677.145 1.175.4 2.056.77 2.643h-7.917c-.147-.442-.266-.892-.357-1.349-.09-.458-.158-.926-.189-1.405-1.25 1.286-2.716 2.182-4.401 2.697-1.685.511-3.406.769-5.166.769-1.355 0-2.62-.165-3.794-.498-1.17-.329-2.196-.84-3.075-1.54-.881-.693-1.565-1.572-2.06-2.634-.494-1.064-.743-2.329-.743-3.792 0-1.615.283-2.941.852-3.985.569-1.043 1.301-1.877 2.2-2.5.894-.622 1.922-1.087 3.076-1.401 1.155-.309 2.316-.56 3.49-.743 1.17-.181 2.327-.33 3.461-.441 1.138-.108 2.146-.275 3.024-.494.881-.219 1.575-.538 2.092-.958.508-.427.745-1.039.712-1.843 0-.845-.141-1.514-.414-2.006-.273-.497-.641-.881-1.098-1.157-.46-.273-.987-.456-1.594-.546-.606-.093-1.254-.14-1.95-.14-1.54 0-2.749.33-3.627.991-.879.658-1.394 1.758-1.541 3.296h-7.804c.111-1.832.569-3.352 1.376-4.558zm-14.267 2.832c-.933-1.024-2.353-1.539-4.26-1.539-1.244 0-2.279.213-3.104.635-.824.418-1.481.94-1.978 1.561-.495.628-.843 1.285-1.046 1.979-.201.702-.318 1.321-.357 1.872h12.699c-.368-1.979-1.021-3.481-1.954-4.508zm-8.82 14.949c1.172 1.138 2.857 1.703 5.057 1.703 1.574 0 2.93-.393 4.068-1.182 1.132-.788 1.83-1.619 2.087-2.498h6.872c-1.1 3.406-2.788 5.841-5.058 7.31-2.274 1.463-5.021 2.197-8.244 2.197-2.234 0-4.252-.359-6.045-1.07-1.798-.714-3.316-1.735-4.561-3.05-1.249-1.323-2.209-2.898-2.889-4.727-.677-1.835-1.014-3.849-1.014-6.045 0-2.128.346-4.104 1.044-5.938.695-1.83 1.682-3.416 2.968-4.753 1.281-1.339 2.807-2.39 4.59-3.162 1.775-.771 3.745-1.155 5.906-1.155 2.418 0 4.525.47 6.321 1.405 1.793.931 3.27 2.189 4.425 3.764 1.152 1.574 1.985 3.37 2.498 5.387.511 2.012.698 4.12.551 6.316h-20.501c.111 2.529.752 4.361 1.925 5.498zm-25.949 6.817-6.652-26.71h-.111l-6.539 26.71h-8.737l-10.391-39.242h8.629l6.212 26.708h.108l6.815-26.708h8.08l6.709 27.042h.108l6.429-27.042h8.463l-10.551 39.242z" fill="#f36f21" fill-rule="evenodd"/><path d="m1 0h399v399h-399z" fill="#f36f21"/><path clip-rule="evenodd" d="m293.4 146.942-31.981-6.899-7.077-31.94-31.135 10.015-22.086-24.118-21.976 24.245-31.195-9.845-6.908 31.956-31.939 7.077 10.015 31.152-24.118 22.094 24.236 21.96-9.845 31.194 31.973 6.891 7.069 31.947 31.161-9.997 22.085 24.109 21.96-24.236 31.202 9.845 6.908-31.965 31.931-7.094-10.022-31.143 24.142-22.086-24.253-21.968zm-92.042-20.207c-40.667 0-73.75 33.091-73.75 73.733 0 40.667 33.083 73.749 73.75 73.749 40.65 0 73.732-33.082 73.732-73.749 0-40.642-33.082-73.733-73.732-73.733zm-46.5 27.707c25.666-25.667 67.417-25.667 93.067-.008 25.641 25.649 25.65 67.392-.008 93.058-25.65 25.65-67.392 25.65-93.05-.008-25.659-25.658-25.659-67.391-.009-93.042z" fill="#fff" fill-rule="evenodd"/></g></svg>