<svg fill="none" height="400" viewBox="0 0 400 400" width="400" xmlns="http://www.w3.org/2000/svg"><rect fill="#fff" height="400" rx="3" width="400"/><path d="m328.812 294.207c-2.257 15.832-13.559 29.521-29.374 35.607-7.75 3.035-16.147 3.957-24.544 3.035-8.066-.908-16.147-3.348-24.529-7.901-11.617-6.1-23.249-15.519-36.808-29.521 21.309-24.654 34.22-47.167 39.066-67.254 2.257-9.434 2.588-17.959 1.61-25.875-1.294-7.603-4.199-14.611-8.713-20.697-10.007-13.689-26.801-21.605-45.521-21.605s-35.514 8.214-45.521 21.605c-4.514 6.086-7.419 13.094-8.713 20.697-1.294 7.916-.963 16.739 1.61 25.875 4.846 20.087 18.073 42.912 39.066 67.552-13.243 14.002-25.176 23.435-36.808 29.521-8.397 4.568-16.463 7.007-24.529 7.915-8.322.88-16.734-.17-24.529-3.035-15.8154-6.086-27.1166-19.789-29.3738-35.607-.9631-7.603-.3161-15.207 2.9043-23.732.9631-3.05 2.5883-6.086 4.1984-9.732 2.2573-4.865 4.8456-10.043 7.4188-15.221l.3311-.61c22.2712-45.352 46.1682-91.611 71.0272-136.651l.964-1.83c2.588-4.554 5.161-9.4334 7.749-14.0012 2.589-4.8657 5.493-9.4335 9.044-13.3914 6.787-7.3056 15.816-11.2634 25.823-11.2634s19.051 3.9578 25.823 11.2634c3.551 3.9579 6.456 8.5257 9.044 13.3914 2.588 4.5678 5.161 9.4332 7.75 13.9872l.978 1.83c24.528 45.337 48.425 91.597 70.696 136.949v.298c2.589 4.865 4.846 10.355 7.419 15.221 1.61 3.66 3.236 6.696 4.199 9.731 2.573 7.93 3.536 15.534 2.242 23.449zm-128.813-14.313c-17.426-20.697-28.727-40.174-32.61-56.601-1.61-7.008-1.941-13.093-.963-18.569.647-4.866 2.589-9.136 5.162-12.781 6.14-8.214 16.463-13.392 28.411-13.392s22.602 4.88 28.411 13.392c2.588 3.659 4.515 7.915 5.162 12.781.963 5.476.647 11.873-.963 18.569-3.868 16.129-15.169 35.606-32.61 56.601zm145.607-15.817c-1.61-3.646-3.236-7.604-4.846-10.951-2.588-5.476-5.161-10.654-7.434-15.52l-.316-.298c-22.271-45.649-46.168-91.909-71.343-137.5585l-.963-1.8299c-2.589-4.5679-5.162-9.4336-7.75-14.2993-3.236-5.4756-6.456-11.2634-11.617-16.7391-10.339-12.1855-25.191-18.8812-41.007-18.8812-16.147 0-30.668 6.6957-41.337 18.257-4.846 5.4757-8.397 11.2635-11.618 16.7392-2.588 4.8657-5.161 9.7314-7.75 14.2992l-.963 1.8157c-24.859 45.6499-49.0719 91.9089-71.3433 137.5589l-.316.61c-2.2572 4.866-4.8455 10.044-7.4338 15.519-1.7306 3.603-3.3407 7.263-4.8456 10.952-4.1984 11.263-5.4926 21.917-3.8824 32.868 3.5514 22.825 19.6981 42.004 41.9695 50.515 8.3966 3.348 17.1096 4.866 26.1536 4.866 2.589 0 5.809-.298 8.397-.61 10.654-1.22 21.624-4.554 32.279-10.341 13.242-6.994 25.822-17.037 40.028-31.649 14.205 14.612 27.117 24.655 40.028 31.649 10.654 5.787 21.625 9.121 32.279 10.341 2.588.312 5.808.61 8.397.61 9.044 0 18.073-1.518 26.153-4.866 22.603-8.525 38.419-28.002 41.97-50.515 2.588-10.639 1.294-21.279-2.889-32.542z" fill="#e0565b"/></svg>