<svg fill="none" height="400" viewBox="0 0 400 400" width="400" xmlns="http://www.w3.org/2000/svg"><rect fill="#fff" height="400" rx="3" width="400"/><path d="m187.079 177.892h-3.947c-1.067 0-1.867.854-1.867 1.867v40.967c0 1.067.853 1.867 1.867 1.867h3.947c1.067 0 1.867-.853 1.867-1.867v-40.967c0-1.067-.853-1.867-1.867-1.867zm16.643 0h-3.947c-1.067 0-1.867.854-1.867 1.867v40.967c0 1.067.853 1.867 1.867 1.867h3.947c1.067 0 1.867-.853 1.867-1.867v-40.967c0-1.067-.853-1.867-1.867-1.867zm121.142 0h-3.948c-1.066 0-1.867.854-1.867 1.867v40.967c0 1.067.854 1.867 1.867 1.867h3.948c1.067 0 1.867-.853 1.867-1.867v-40.967c0-1.067-.854-1.867-1.867-1.867zm-16.697 12.109h-3.947c-1.067 0-1.867.853-1.867 1.867v28.805c0 1.067.854 1.867 1.867 1.867h3.947c1.067 0 1.867-.853 1.867-1.867v-28.805c0-1.014-.853-1.867-1.867-1.867zm-65.025-12.109h-32.539c-1.067 0-1.867.854-1.867 1.867v3.521c0 1.067.854 1.867 1.867 1.867h12.322v35.579c0 1.067.854 1.867 1.867 1.867h4.108c1.067 0 1.867-.853 1.867-1.867v-35.579h12.322c1.067 0 1.867-.854 1.867-1.867v-3.521c.107-1.067-.747-1.867-1.814-1.867z" fill="#808080"/><path d="m259.945 188.294c-.053 0-.16 0-.213 0-4.801.533-8.002 3.734-9.869 8.161v-4.534c0-1.067-.853-1.867-1.867-1.867h-3.947c-1.067 0-1.867.854-1.867 1.867v28.805c0 1.067.854 1.867 1.867 1.867h3.947c1.067 0 1.867-.853 1.867-1.867v-10.935c0-8.215 4.001-12.589 9.869-13.282 1.173-.16 2.08-1.121 2.08-2.347v-4.001c.054-1.014-.8-1.867-1.867-1.867zm26.298 22.137c0 4.214-3.84 7.095-8.961 7.095-3.628 0-6.508-1.814-6.508-4.961v-.107c0-3.254 2.88-5.227 7.735-5.227 2.987 0 5.761.586 7.734 1.333zm-7.361-22.084c-4.694 0-8.055.854-11.202 2.134-.907.373-1.387 1.387-1.067 2.347l.907 2.72c.373.961 1.44 1.494 2.4 1.174h.054c2.4-.853 4.801-1.387 7.841-1.387 5.388 0 8.322 2.561 8.322 7.201v.641c-2.614-.854-5.228-1.387-9.335-1.387-7.842 0-13.656 3.574-13.656 11.042v.106c0 6.775 5.601 10.402 12.002 10.402 5.121 0 8.641-2.134 10.935-4.854v2.24c0 1.067.854 1.867 1.867 1.867h3.894c1.067 0 1.867-.853 1.867-1.867v-18.136c0-9.015-4.854-14.243-14.829-14.243zm31.579-6.934c0-2.347-1.92-4.321-4.321-4.321-2.347 0-4.321 1.92-4.321 4.321 0 2.4 1.921 4.32 4.321 4.32 2.401-.053 4.321-1.973 4.321-4.32zm39.047 21.283c-3.947-1.28-7.628-2.293-7.628-4.747v-.16c0-1.974 1.707-3.414 4.747-3.414 2.347 0 5.175.853 8.002 2.347.853.427 1.92.107 2.454-.747l1.066-1.867c.16-.32.267-.747.267-1.173 0-.907-.533-1.707-1.28-2.081-3.201-1.653-6.881-2.613-10.295-2.613-6.721 0-12.002 3.894-12.002 10.295v.106c0 6.455 5.547 8.482 10.562 9.922 3.947 1.227 7.521 2.134 7.521 4.748v.106c0 2.241-1.92 3.628-5.228 3.628-2.987 0-6.348-1.067-9.548-3.148-.854-.533-1.974-.266-2.561.587l-1.12 1.761c-.693 1.066-.427 2.453.64 3.2 3.841 2.454 8.322 3.734 12.483 3.734 7.041 0 12.535-3.521 12.535-10.615v-.107c-.107-6.028-5.654-8.268-10.615-9.762zm-194.008-15.736 7.681 17.923.854 2.028h-17.017l.854-2.028c-.054-.053 7.628-17.923 7.628-17.923zm22.084 33.02-18.03-41.288c-.32-.693-.96-1.12-1.76-1.12h-4.535c-.746 0-1.44.427-1.76 1.12l-18.03 41.288c-.427.96.054 2.08 1.014 2.453.213.107.48.16.747.16h3.307c1.173 0 2.133-.693 2.614-1.707l3.04-7.094h22.724l3.041 7.094c.426 1.014 1.44 1.707 2.614 1.707h3.307c1.067 0 1.867-.853 1.867-1.867-.054-.266-.107-.533-.16-.746z" fill="#808080"/><path d="m121.84 223.447c-13.282-14.029-41.7671-19.897-59.957-11.096l19.0434-26.351 9.0683 14.403c.4801.853 1.6003 1.12 2.4005.586 0 0 .0533 0 .0533-.053l6.8812-4.587s10.7223 11.522 16.5363 17.816c.267.267.693.214.96-.053.107-.107.16-.267.16-.427 0-.107-.053-.213-.053-.32-3.361-6.028-9.548-16.643-14.616-25.445-.854-1.493-1.92-1.76-3.414-.746l-4.6408 3.2-11.6821-18.083-.0534-.107v-.053c-.3734-.533-.9602-.854-1.6003-.854-.5867 0-1.1735.267-1.5469.694-.0534.053-.0534.053-.1067.107 0 .053-.0533.053-.0533.106-12.9624 17.39-25.9247 34.727-38.9404 52.063-.48.64-.32 1.547.3201 2.027.2667.16.5334.267.8535.267.2134 0 .4267-.054.6401-.16.3201-.16.6935-.374 1.0669-.534 10.8819-5.601 35.2596-13.816 52.116-.907 7.3613 6.402 33.1793 4.961 26.5643-1.493z" fill="#428813"/></svg>