<svg fill="none" height="400" viewBox="0 0 400 400" width="400" xmlns="http://www.w3.org/2000/svg" xmlns:xlink="http://www.w3.org/1999/xlink"><linearGradient id="a"><stop offset="0" stop-color="#0c6bb3"/><stop offset=".289063" stop-color="#1d83c3"/><stop offset=".890625" stop-color="#4bbfef"/><stop offset="1" stop-color="#4bbfef"/></linearGradient><linearGradient id="b" gradientUnits="userSpaceOnUse" x1="42.0252" x2="353.337" xlink:href="#a" y1="152.951" y2="152.951"/><linearGradient id="c" gradientUnits="userSpaceOnUse" x1="39.2587" x2="360.742" xlink:href="#a" y1="257.685" y2="257.685"/><rect fill="#fff" height="400" rx="3" width="400"/><path d="m252.936 187.26c-2.164 1.443-5.415 2.528-9.389 2.528-6.138 0-11.918-.722-17.696-2.528-1.445-.362-2.529-.723-3.25-.723-1.084 0-1.445.723-1.445 2.166v3.614c0 1.082.361 1.803.721 2.527.363.361 1.084 1.084 2.169 1.445 5.777 2.527 12.278 3.611 19.501 3.611 7.585 0 13.363-1.806 18.059-5.417 4.693-3.611 6.861-8.307 6.861-14.445 0-4.335-1.084-7.586-3.25-10.475-2.167-2.528-5.78-5.057-10.836-6.862l-10.112-3.972c-3.972-1.445-6.86-2.89-7.945-4.335-1.444-1.445-2.166-2.888-2.166-5.417 0-5.417 3.972-8.307 12.279-8.307 4.695 0 9.389.724 13.724 2.168 1.445.361 2.527.722 2.888.722 1.084 0 1.807-.722 1.807-2.166v-3.612c0-1.084-.362-1.805-.723-2.529-.361-.721-1.084-1.082-2.167-1.445-5.417-1.805-10.834-2.888-16.252-2.888-6.861 0-12.64 1.806-16.975 5.057-4.333 3.25-6.499 7.944-6.499 13.361 0 8.307 4.694 14.447 14.084 18.058l10.834 3.972c3.612 1.445 5.778 2.529 7.223 3.974s1.806 2.89 1.806 5.055c0 2.889-1.083 5.418-3.251 6.863zm38.644-79.094c-1.445-1.443-3.611-2.166-6.138-2.166-2.529 0-4.335.723-5.78 2.166-1.443 1.447-2.166 3.251-2.166 5.417 0 2.169.723 4.335 2.166 5.419 1.445 1.445 3.251 2.167 5.78 2.167 2.527 0 4.333-.722 5.778-2.167 1.444-1.445 2.168-3.25 2.168-5.419 0-2.166-.363-4.332-1.808-5.417zm-2.166 24.56h-7.585c-1.806 0-2.528.722-2.528 2.527v59.952c0 1.805.722 2.529 2.528 2.529h7.585c1.805 0 2.527-.724 2.527-2.529v-59.952c0-1.445-.722-2.527-2.527-2.527zm33.948 14.445c3.251-3.611 8.305-5.417 15.53-5.417 3.611 0 7.223.361 10.473 1.445 1.084.361 1.445.361 2.167.361 1.084 0 1.805-.722 1.805-2.527v-3.612c0-1.084-.361-2.168-.721-2.529-.363-.36-1.084-1.084-1.806-1.444-4.695-1.083-9.391-2.167-13.724-2.167-10.112 0-17.697 2.89-23.475 9.028-5.417 5.78-8.305 14.448-8.305 25.282s2.527 19.14 7.944 24.92c5.417 5.778 13 8.666 23.113 8.666 5.419 0 10.475-.722 14.447-2.528 1.084-.36 1.806-.721 2.166-1.444.361-.361.361-1.445.361-2.528v-3.611c0-1.807-.721-2.529-1.805-2.529-.361 0-1.083 0-1.806.361-3.972 1.084-7.944 1.805-11.557 1.805-6.86 0-11.917-1.805-15.167-5.417-3.251-3.611-4.696-9.389-4.696-16.972v-1.808c.361-7.944 1.806-13.723 5.056-17.335zm-195.744 50.563h7.584c1.805 0 2.527-.724 2.527-2.529v-45.144c0-6.14-1.445-10.834-4.695-14.084-3.249-3.251-7.584-5.057-13.724-5.057-8.305 0-16.973 2.888-25.2795 9.029-2.8898-6.141-8.3068-9.029-16.251-9.029-7.946 0-15.892 2.888-23.838 8.307l-.7215-3.974c0-1.082-.3608-1.445-1.0841-1.805-.3608-.361-1.0823-.361-1.8057-.361h-5.7778c-1.8056 0-2.529.721-2.529 2.529v59.949c0 1.808.7234 2.529 2.529 2.529h7.5853c1.8039 0 2.5272-.721 2.5272-2.529v-48.754c6.1385-3.612 12.2788-5.78 18.78-5.78 3.6113 0 6.1403 1.084 7.5834 3.252 1.4449 2.167 2.529 5.055 2.529 9.389v41.533c0 1.805.7216 2.529 2.5272 2.529h7.5852c1.8057 0 2.5273-.724 2.5273-2.529v-44.422-2.167c0-.721 0-1.445 0-1.805 6.501-3.973 12.64-5.778 18.78-5.778 3.611 0 6.138 1.082 7.583 3.25 1.445 2.167 2.529 5.057 2.529 9.389v41.533c0 1.805.722 2.529 2.529 2.529zm68.619-62.481v48.033c-6.14 3.974-12.28 6.141-18.419 6.141-3.974 0-6.862-1.084-8.668-3.251-1.805-2.166-2.529-5.417-2.529-10.112v-40.811c0-1.805-.721-2.527-2.527-2.527h-7.585c-1.806 0-2.527.722-2.527 2.527v44.785c0 6.138 1.445 11.194 4.695 14.445 3.251 3.251 7.944 5.056 14.085 5.056 8.307 0 16.613-2.89 24.558-8.667l.723 4.333c0 1.084.361 1.444 1.082 1.805.363.363 1.084.363 2.167.363h5.418c1.806 0 2.528-.724 2.528-2.529v-59.591c0-1.805-.722-2.527-2.528-2.527h-7.585c-2.166 0-2.888 1.082-2.888 2.527z" fill="url(#b)"/><path d="m339.614 279.715c18.78-15.892 23.836-48.756 19.864-53.812-1.806-2.167-10.474-4.333-21.309-4.333-11.556 0-25.28 2.527-35.753 9.75-3.25 2.166-2.529 5.056.722 4.695 11.196-1.445 36.476-4.333 41.171 1.445 4.333 5.778-5.056 29.614-9.389 40.087-1.084 3.251 1.443 4.335 4.694 2.168zm-15.169-33.948c-39.366 16.613-82.343 24.92-121.348 24.92-57.783 0-113.7618-15.892-158.9052-42.255-.7234-.361-1.4449-.724-2.1683-.724-2.5272 0-3.9721 2.89-1.4449 5.419 41.8947 37.921 97.5134 60.673 158.9074 60.673 44.061 0 94.984-13.724 130.015-39.726 6.14-4.335 1.084-10.836-5.056-8.307z" fill="url(#c)"/></svg>