<svg fill="none" height="400" viewBox="0 0 400 400" width="400" xmlns="http://www.w3.org/2000/svg"><rect fill="#fff" height="400" rx="3" width="400"/><path d="m313.966 298.251c-128.212 59.715-207.782 9.754-258.7171-20.592-3.1518-1.913-8.5089.447-3.8609 5.672 16.9691 20.136 72.58 68.669 145.169 68.669 72.639 0 115.852-38.788 121.258-45.555 5.369-6.709 1.577-10.41-3.85-8.194zm36.008-19.461c-3.443-4.387-20.936-5.205-31.945-3.882-11.026 1.286-27.576 7.88-26.137 11.84.739 1.483 2.246.818 9.82.151 7.595-.741 28.872-3.369 33.306 2.303 4.454 5.711-6.786 32.917-8.839 37.305-1.984 4.388.758 5.519 4.483 2.597 3.675-2.921 10.327-10.487 14.791-21.192 4.434-10.765 7.137-25.781 4.52-29.122z" fill="#f90"/><path clip-rule="evenodd" d="m227.758 176.403c0 15.669.404 28.735-7.688 42.65-6.531 11.314-16.877 18.271-28.437 18.271-15.78 0-24.97-11.766-24.97-29.131 0-34.279 31.385-40.501 61.095-40.501zm41.442 98.028c-2.717 2.375-6.647 2.546-9.71.961-13.641-11.086-16.069-16.233-23.583-26.811-22.541 22.513-38.494 29.244-67.741 29.244-34.564 0-61.499-20.873-61.499-62.675 0-32.637 18.092-54.868 43.812-65.728 22.311-9.617 53.465-11.314 77.279-13.971v-5.205c0-9.56.75-20.872-4.971-29.13-5.029-7.4107-14.624-10.4654-23.063-10.4654-15.663 0-29.651 7.8621-33.061 24.1524-.694 3.621-3.41 7.185-7.109 7.355l-39.882-4.185c-3.352-.737-7.051-3.395-6.126-8.43 9.19-47.2876 52.827-61.5429 91.899-61.5429 19.999 0 46.124 5.2044 61.904 20.025 19.999 18.2699 18.091 42.6489 18.091 69.1789v62.674c0 18.836 7.977 27.094 15.49 37.277 2.659 3.619 3.238 7.976-.115 10.69-8.381 6.844-23.294 19.572-31.501 26.7l-.115-.114" fill="#000" fill-rule="evenodd"/><path d="m313.966 298.251c-128.212 59.715-207.782 9.754-258.7171-20.592-3.1518-1.913-8.5089.447-3.8609 5.672 16.9691 20.136 72.58 68.669 145.169 68.669 72.639 0 115.852-38.788 121.258-45.555 5.369-6.709 1.577-10.41-3.85-8.194zm36.008-19.461c-3.443-4.387-20.936-5.205-31.945-3.882-11.026 1.286-27.576 7.88-26.137 11.84.739 1.483 2.246.818 9.82.151 7.595-.741 28.872-3.369 33.306 2.303 4.454 5.711-6.786 32.917-8.839 37.305-1.984 4.388.758 5.519 4.483 2.597 3.675-2.921 10.327-10.487 14.791-21.192 4.434-10.765 7.137-25.781 4.52-29.122z" fill="#f90"/><path clip-rule="evenodd" d="m227.758 176.403c0 15.669.404 28.735-7.688 42.65-6.531 11.314-16.877 18.271-28.437 18.271-15.78 0-24.97-11.766-24.97-29.131 0-34.279 31.385-40.501 61.095-40.501zm41.442 98.028c-2.717 2.375-6.647 2.546-9.71.961-13.641-11.086-16.069-16.233-23.583-26.811-22.541 22.513-38.494 29.244-67.741 29.244-34.564 0-61.499-20.873-61.499-62.675 0-32.637 18.092-54.868 43.812-65.728 22.311-9.617 53.465-11.314 77.279-13.971v-5.205c0-9.56.75-20.872-4.971-29.13-5.029-7.4107-14.624-10.4654-23.063-10.4654-15.663 0-29.651 7.8621-33.061 24.1524-.694 3.621-3.41 7.185-7.109 7.355l-39.882-4.185c-3.352-.737-7.051-3.395-6.126-8.43 9.19-47.2876 52.827-61.5429 91.899-61.5429 19.999 0 46.124 5.2044 61.904 20.025 19.999 18.2699 18.091 42.6489 18.091 69.1789v62.674c0 18.836 7.977 27.094 15.49 37.277 2.659 3.619 3.238 7.976-.115 10.69-8.381 6.844-23.294 19.572-31.501 26.7l-.115-.114" fill="#000" fill-rule="evenodd"/></svg>