<svg fill="none" height="400" viewBox="0 0 400 400" width="400" xmlns="http://www.w3.org/2000/svg"><rect fill="#fff" height="400" rx="3" width="400"/><path clip-rule="evenodd" d="m199.628 39.253c-88.569 0-160.3702 71.838-160.3702 160.452 0 81.361 60.5289 148.567 138.9892 159.028v-32.331c0-9.117-5.747-17.309-14.385-20.21-45.269-15.216-77.6549-58.506-76.4621-109.194 1.4522-61.709 51.6941-110.2268 113.3861-109.6047 61.466.6221 111.103 50.6677 111.103 112.3117 0 1.405-.034 2.803-.086 4.194-.012.311-.022.625-.035.938-.059 1.292-.138 2.581-.239 3.863-.03.408-.072.815-.109 1.222-.079.894-.17 1.783-.271 2.67-.114 1.008-.245 2.01-.385 3.007-.062.456-.124.913-.193 1.365-13.744 90.583-131.665 141.494-132.312 141.772 6.993.931 14.125 1.42 21.369 1.42 88.571 0 160.372-71.836 160.372-160.451 0-88.614-71.801-160.452-160.372-160.452z" fill="#5fcaf4" fill-rule="evenodd"/></svg>