<svg fill="none" height="400" viewBox="0 0 400 400" width="400" xmlns="http://www.w3.org/2000/svg"><rect fill="#fff" height="400" rx="3" width="400"/><g clip-rule="evenodd" fill-rule="evenodd"><path d="m151.014 222.216c-10.304 7.604-25.242 11.647-38.104 11.647-18.0279 0-34.2618-6.664-46.5457-17.756-.9646-.871-.1039-2.061 1.0553-1.386 13.2535 7.712 29.6445 12.357 46.5724 12.357 11.419 0 23.973-2.371 35.524-7.27 1.741-.737 3.202 1.15 1.498 2.408z" fill="#f90"/><path d="m155.301 217.322c-1.318-1.687-8.711-.8-12.033-.402-1.006.122-1.162-.758-.256-1.395 5.898-4.142 15.562-2.946 16.685-1.559 1.132 1.399-.296 11.088-5.824 15.711-.85.711-1.659.332-1.282-.607 1.245-3.106 4.029-10.06 2.71-11.748z" fill="#f90"/><path d="m143.503 186.261v-4.025c.004-.613.464-1.022 1.022-1.02l18.04-.002c.577 0 1.04.42 1.04 1.016v3.452c-.005.58-.493 1.335-1.358 2.534l-9.345 13.343c3.468-.082 7.139.438 10.29 2.21.711.398.901.99.958 1.57v4.296c0 .591-.649 1.276-1.33.919-5.552-2.908-12.921-3.226-19.061.036-.627.334-1.283-.341-1.283-.933v-4.083c0-.653.012-1.771.671-2.766l10.828-15.533-9.427-.001c-.579.001-1.041-.41-1.045-1.013z" fill="#000"/><path d="m77.6954 211.401h-5.4892c-.5222-.035-.9388-.426-.9821-.928l.0042-28.168c0-.564.4731-1.014 1.0586-1.014l5.1116-.002c.5347.028.9638.432.9971.947v3.677h.1031c1.3321-3.557 3.8426-5.217 7.223-5.217 3.4327 0 5.5848 1.661 7.1215 5.217 1.333-3.557 4.3549-5.217 7.5828-5.217 2.305 0 4.817.949 6.353 3.083 1.742 2.372 1.385 5.809 1.385 8.832l-.005 17.777c0 .563-.473 1.014-1.059 1.014h-5.481c-.552-.036-.985-.471-.985-1.012l-.002-14.933c0-1.184.103-4.149-.154-5.275-.41-1.897-1.6392-2.431-3.2267-2.431-1.333 0-2.7167.889-3.2805 2.311-.563 1.423-.5122 3.794-.5122 5.395v14.932c0 .562-.4732 1.014-1.0578 1.014h-5.4825c-.5513-.036-.9854-.472-.9854-1.012l-.005-14.933c0-3.142.5122-7.765-3.3803-7.765-3.9458 0-3.792 4.505-3.792 7.765l-.0016 14.932c.0008.561-.474 1.011-1.0586 1.011z" fill="#000"/><path d="m179.136 180.696c8.146 0 12.55 6.996 12.55 15.887 0 8.594-4.866 15.412-12.55 15.412-7.993 0-12.348-6.996-12.348-15.709 0-8.773 4.406-15.59 12.348-15.59zm.049 5.751c-4.047 0-4.302 5.511-4.302 8.95 0 3.438-.051 10.788 4.253 10.788 4.253 0 4.457-5.928 4.457-9.542 0-2.371-.103-5.217-.821-7.47-.615-1.956-1.845-2.726-3.587-2.726z" fill="#000"/><path d="m202.251 211.401h-5.468c-.55-.036-.986-.471-.986-1.012l-.009-28.179c.047-.516.502-.919 1.055-.919l5.09-.002c.48.025.875.352.976.789v4.309h.104c1.537-3.855 3.688-5.692 7.479-5.692 2.459 0 4.868.889 6.404 3.321 1.434 2.252 1.434 6.045 1.434 8.772v17.726c-.06.499-.509.886-1.052.886h-5.501c-.508-.032-.918-.406-.977-.886v-15.294c0-3.083.36-7.588-3.432-7.588-1.333 0-2.562.889-3.177 2.251-.769 1.72-.872 3.438-.872 5.337v15.167c-.009.563-.483 1.014-1.068 1.014z" fill="#000"/><path d="m129.122 197.949c0 2.14.051 3.921-1.028 5.823-.872 1.543-2.259 2.494-3.798 2.494-2.105 0-3.337-1.605-3.337-3.98 0-4.675 4.192-5.525 8.164-5.525v1.188zm5.533 13.382c-.363.327-.887.348-1.297.128-1.822-1.515-2.149-2.215-3.146-3.657-3.012 3.069-5.145 3.99-9.049 3.99-4.62 0-8.215-2.852-8.215-8.555 0-4.455 2.413-7.484 5.854-8.97 2.977-1.307 7.136-1.544 10.32-1.902v-.713c0-1.307.103-2.85-.668-3.98-.668-1.01-1.951-1.426-3.081-1.426-2.093 0-3.954 1.073-4.412 3.296-.095.495-.455.984-.953 1.009l-5.319-.576c-.45-.101-.949-.461-.82-1.147 1.224-6.453 7.051-8.403 12.274-8.403 2.671 0 6.161.711 8.266 2.733 2.671 2.495 2.414 5.823 2.414 9.446v8.55c0 2.573 1.068 3.7 2.071 5.086.351.5.429 1.092-.018 1.458-1.121.941-3.113 2.67-4.209 3.646z" fill="#000"/><path d="m57.1715 197.949c0 2.14.0515 3.921-1.0262 5.823-.8714 1.543-2.2593 2.494-3.7994 2.494-2.1047 0-3.3371-1.605-3.3371-3.98 0-4.675 4.1936-5.525 8.1627-5.525zm5.5341 13.382c-.3626.327-.8873.348-1.2964.128-1.8237-1.515-2.1505-2.215-3.1459-3.657-3.0136 3.069-5.1465 3.99-9.0482 3.99-4.6211 0-8.2151-2.852-8.2151-8.555 0-4.455 2.4124-7.484 5.8534-8.97 2.9778-1.307 7.1373-1.544 10.3189-1.902v-.713c0-1.307.104-2.85-.6661-3.98-.6685-1.01-1.9517-1.426-3.0809-1.426-2.0939 0-3.9558 1.073-4.4115 3.296-.0956.495-.4557.984-.9538 1.009l-5.3187-.576c-.4507-.102-.9505-.461-.8208-1.148 1.2224-6.453 7.0501-8.403 12.274-8.403 2.6701 0 6.1619.711 8.2666 2.733 2.6693 2.495 2.4132 5.823 2.4132 9.447v8.549c0 2.573 1.0677 3.7 2.0706 5.086.3501.5.4299 1.093-.0175 1.458-1.1217.941-3.1142 2.671-4.2094 3.646z" fill="#000"/></g><path d="m243.765 211.413-12.788-15.504h-.063v15.504h-4.598v-44.62h4.598v25.335h.063l10.962-10.525h5.984l-13.103 12.163 14.804 17.647z" fill="#f90"/><path d="m254.977 175.364c-1.763 0-3.212-1.45-3.212-3.214 0-1.766 1.449-3.214 3.212-3.214 1.764 0 3.213 1.448 3.213 3.214 0 1.764-1.449 3.214-3.213 3.214zm-2.267 36.049v-29.81h4.598v29.81z" fill="#f90"/><path d="m283.152 211.413v-18.34c0-3.718-.63-7.878-5.166-7.878-3.654 0-6.992 2.584-9.26 4.539v21.68h-4.598v-29.811h3.779l.631 3.592c3.274-2.52 6.488-4.348 10.646-4.348 4.283 0 8.567 3.087 8.567 10.525v20.042h-4.599z" fill="#f90"/><path d="m308.033 212.043c-8.315 0-15.308-4.852-15.308-15.125 0-9.264 6.677-16.071 15.37-16.071 2.141 0 3.655.189 4.85.504v-14.558h4.599v43.107c-1.826 1.072-5.29 2.143-9.511 2.143zm4.913-26.406c-1.195-.442-2.267-.756-4.597-.756-5.86 0-10.962 4.601-10.962 11.722 0 6.744 3.717 11.533 11.465 11.533 1.511 0 3.15-.315 4.094-.755z" fill="#f90"/><path d="m329.513 212.043c-3.654 0-5.228-2.332-5.228-5.483v-39.767h4.599v37.687c0 2.836.692 3.404 2.456 3.404.315 0 .819 0 1.575-.189l.568 3.34c-1.387.693-2.458 1.008-3.97 1.008z" fill="#f90"/><path d="m340.914 197.296c0 5.672 3.276 10.776 9.701 10.776 2.709 0 5.481-1.071 7.245-2.205l1.448 3.276c-2.204 1.513-5.984 2.899-9.26 2.899-9.511 0-14.048-7.625-14.048-16.134 0-8.634 4.913-15.062 12.095-15.062 7.685 0 11.905 6.114 11.905 15.378v1.072zm7.244-12.542c-4.409 0-7.182 3.908-7.182 8.635h14.049c0-4.16-2.33-8.635-6.867-8.635z" fill="#f90"/></svg>