<svg width="28" height="28" viewBox="0 0 28 28" fill="none" xmlns="http://www.w3.org/2000/svg">
<path d="M20.3438 1.69531H7.65625C6.69102 1.69531 5.90625 2.48008 5.90625 3.44531V24.4453C5.90625 25.4105 6.69102 26.1953 7.65625 26.1953H20.3438C21.309 26.1953 22.0938 25.4105 22.0938 24.4453V3.44531C22.0938 2.48008 21.309 1.69531 20.3438 1.69531ZM20.125 24.2266H7.875V3.66406H20.125V24.2266ZM12.9063 21.4375C12.9063 21.7276 13.0215 22.0058 13.2266 22.2109C13.4317 22.416 13.7099 22.5313 14 22.5313C14.2901 22.5313 14.5683 22.416 14.7734 22.2109C14.9785 22.0058 15.0938 21.7276 15.0938 21.4375C15.0938 21.1474 14.9785 20.8692 14.7734 20.6641C14.5683 20.459 14.2901 20.3438 14 20.3438C13.7099 20.3438 13.4317 20.459 13.2266 20.6641C13.0215 20.8692 12.9063 21.1474 12.9063 21.4375Z" fill="#3C3E49"/>
</svg>
