<svg fill="none" height="400" viewBox="0 0 400 400" width="400" xmlns="http://www.w3.org/2000/svg" xmlns:xlink="http://www.w3.org/1999/xlink"><mask id="a" height="400" maskUnits="userSpaceOnUse" width="400" x="0" y="0"><path clip-rule="evenodd" d="m34.4262 0h330.6868c18.976 0 34.426 15.5256 34.426 34.4262v330.6868c0 18.976-15.525 34.426-34.426 34.426h-330.6868c-18.9006.075-34.4262-15.45-34.4262-34.426v-330.6868c0-18.9006 15.5256-34.4262 34.4262-34.4262z" fill="#fff" fill-rule="evenodd"/></mask><rect fill="#000" height="400" rx="3" width="400"/><g mask="url(#a)"><path d="m-24-25h449v449h-449z" fill="#000"/><path d="m271.736 176.579c12.689 1.952 21.474 7.809 26.355 15.619 4.881 7.808 7.809 21.475 7.809 39.045 0 35.141-10.737 64.426-32.212 86.877-21.476 22.452-48.808 34.165-81.997 34.165-12.69 0-25.38-1.952-38.07-6.833-12.69-4.88-22.451-11.713-31.237-19.522-9.761-8.786-17.57-19.524-22.451-29.285-3.9044-10.737-6.8329-21.475-6.8329-32.213 0-11.714 2.9285-21.475 7.8089-28.308 4.881-6.833 13.666-10.738 24.404-13.666-1.952-4.881-3.905-8.786-4.881-12.69-.976-2.929-1.952-5.856-1.952-7.809 0-5.857 2.928-12.69 9.761-19.523s12.69-9.761 18.547-9.761c2.929 0 4.881 0 7.81.976 2.928.976 5.857 1.952 9.761 4.88-8.785-29.284-17.571-53.688-22.452-70.282-4.88-16.5944-6.833-27.3317-6.833-34.1654 0-8.7855 1.953-15.6183 6.833-20.4986 3.906-4.8819 10.739-7.8096 18.548-7.8096 12.69 0 29.285 29.2849 49.784 88.8286 3.904 9.763 5.856 17.571 7.809 23.428 1.952-3.904 3.904-10.738 6.833-18.546 20.497-58.5695 38.068-87.8536 51.735-87.8536 6.833 0 12.69 1.9518 17.57 6.8329 3.905 4.8811 6.833 11.7139 6.833 19.5227 0 5.857-1.952 17.571-6.833 34.165-5.857 16.595-12.69 38.07-22.451 64.426zm-150.329 85.902c1.953 1.951 4.882 5.856 7.81 10.737 8.786 12.689 17.571 19.522 25.381 19.522 2.928 0 4.88-.976 6.833-2.929 1.951-1.952 2.928-3.904 2.928-4.881 0-1.952-.977-5.856-3.904-10.737-2.929-4.881-6.833-10.737-11.714-16.594-5.857-6.833-10.738-12.69-13.666-15.62-3.905-2.927-6.833-4.879-8.786-4.879-4.881 0-9.762 2.928-13.666 7.809-3.905 4.88-5.857 11.713-5.857 18.547 0 5.856.977 11.713 3.905 19.522 2.929 6.833 6.833 14.642 12.69 21.476 8.785 9.761 18.547 18.547 31.237 24.403 12.69 5.857 25.379 8.786 40.997 8.786 27.332 0 49.783-9.762 68.331-30.261 18.547-20.499 27.332-45.879 27.332-77.116 0-9.761-.976-16.594-1.952-22.452-.977-5.856-3.905-9.76-6.833-11.713-5.857-4.881-16.595-8.785-33.189-12.69-16.595-3.904-34.166-5.857-51.736-5.857-4.881 0-8.785.976-10.738 2.929-1.952 1.952-2.928 4.881-2.928 8.785 0 9.762 4.881 16.595 15.618 20.499 10.737 3.905 28.308 6.833 51.736 6.833h8.785c1.953 0 3.905.976 4.881 1.953.976 1.952 1.953 3.904 1.953 6.833-1.954 1.952-6.833 4.88-14.643 7.809-7.809 2.928-12.69 5.857-16.594 8.785-8.786 5.857-15.619 13.666-20.5 22.452-4.881 8.785-7.809 16.594-7.809 24.403 0 4.881.977 9.762 2.928 16.595 1.954 6.833 2.929 10.737 2.929 11.714v3.904c-5.857 0-10.737-3.904-14.642-10.737s-4.881-15.619-4.881-27.333v-1.952c-.976.976-1.952 1.952-2.928 1.952s-1.952.976-3.905.976h-3.904c-.977 0-1.953-.976-3.905-.976 0 1.952.976 2.929.976 4.881v3.905c0 4.88-1.952 9.761-5.857 13.666-3.904 3.904-8.785 5.857-14.642 5.857-8.786 0-17.57-3.905-27.332-12.69-8.786-8.786-13.665-16.595-13.665-25.38 0-1.953 0-2.928.975-3.905 0-4.88.976-5.856 1.952-6.833zm63.45 4.879c1.952 0 4.881-.976 6.833-2.928 1.953-1.952 2.928-4.881 2.928-6.832 0-2.929-1.952-8.787-5.856-18.547-3.905-9.762-8.786-19.523-14.642-28.309-3.905-6.832-8.786-12.689-12.69-15.619-3.905-3.904-7.81-4.879-11.714-4.879-2.929 0-5.857 1.952-9.762 5.856-3.904 3.904-4.881 6.833-4.881 10.737 0 2.929 1.953 8.787 4.881 15.619 3.905 6.833 7.809 13.666 13.666 21.475 5.858 7.81 11.716 14.642 17.572 19.523 5.857 1.952 9.761 3.905 13.666 3.905zm20.498-101.519-23.427-65.402c-5.856-16.594-9.761-28.308-13.665-33.1883-2.929-4.8811-5.857-7.8096-9.762-7.8096-2.928 0-4.881.9768-6.833 2.9285-2.928 2.9285-3.905 5.857-3.905 9.7614 0 6.8329 2.929 17.571 7.81 33.189 4.881 15.619 12.69 37.094 22.452 62.474.975-1.953 1.952-2.929 3.903-2.929 1.953-.976 3.906-.976 5.857-.976h4.881c2.929.976 6.833.976 12.69 1.952zm23.428 63.449c-5.857 0-11.713-.975-17.57-1.951s-10.738-1.953-15.619-3.905c1.954 4.881 3.905 8.786 5.858 13.666 1.952 4.881 2.928 8.786 3.904 13.666 2.929-3.905 6.833-7.809 10.738-11.713 4.881-3.905 8.786-6.833 12.689-9.762zm28.309-56.616c9.762-25.38 16.595-46.854 22.452-63.449 4.88-16.5945 7.808-26.3559 7.808-30.2603 0-3.9052-.975-6.8329-2.928-9.7622-1.952-1.9518-3.904-2.9277-6.833-2.9277-3.904 0-7.81 2.9277-11.714 9.7614-3.904 6.8329-8.785 16.5943-13.666 31.2368l-21.475 60.521 26.356 4.881z" fill="#fff"/></g></svg>