<svg fill="none" height="400" viewBox="0 0 400 400" width="400" xmlns="http://www.w3.org/2000/svg" xmlns:xlink="http://www.w3.org/1999/xlink"><radialGradient id="a" cx="0" cy="0" gradientTransform="matrix(79.8089 0 0 73.7684 200.781 155.842)" gradientUnits="userSpaceOnUse" r="1"><stop offset="0" stop-color="#ffb900"/><stop offset=".6" stop-color="#f95d8f"/><stop offset=".9991" stop-color="#f95353"/></radialGradient><rect fill="#fff" height="400" rx="3" width="400"/><path d="m70.9178 293.661c-10.4986 0-19.0085-8.698-19.0085-19.429s8.5099-19.43 19.0097-19.43c10.4986 0 19.0072 8.699 19.0072 19.43s-8.5086 19.429-19.0072 19.429zm19.0694 2.464c0 1.779 3.049 6.777 6.785 6.777h2.4193c.9385 0 1.7055-.768 1.7055-1.705v-53.171h-.009c-.024-.434-.212-.844-.528-1.143-.315-.3-.7333-.468-1.1685-.47h-7.4968c-.9073 0-1.6477.718-1.6988 1.613h-.0087v4.321c-4.5922-5.657-11.8352-8.006-19.0981-8.006-16.5082 0-29.8891 13.382-29.8891 29.892 0 16.509 13.3809 29.891 29.8891 29.891 7.2629 0 15.1779-2.817 19.0981-8.005v.008zm28.8228-7.614c5.004 3.466 10.467 5.15 15.717 5.15 5.002 0 10.171-2.594 10.171-7.106 0-6.024-11.267-6.962-18.344-9.368-7.081-2.405-13.179-7.38-13.179-15.434 0-12.323 10.981-17.413 21.231-17.413 6.494 0 13.193 2.14 17.537 5.209 1.498 1.133.585 2.436.585 2.436l-4.146 5.921c-.466.667-1.432 1.2-2.451.522-2.794-1.847-5.905-3.627-11.526-3.627-6.958 0-10.019 2.889-10.019 6.468 0 4.293 4.895 5.642 10.628 7.106 9.994 2.692 20.896 5.931 20.896 18.181 0 10.858-10.158 17.568-21.383 17.568-8.507 0-15.75-2.425-21.824-6.882-1.264-1.267-.381-2.443-.381-2.443l4.126-5.891c.84-1.103 1.898-.717 2.362-.397zm93.325 7.615c0 1.778 3.048 6.776 6.782 6.776h2.421c.938 0 1.706-.768 1.706-1.705v-53.171h-.01c-.024-.434-.213-.843-.528-1.143-.315-.299-.733-.468-1.168-.47h-7.497c-.908 0-1.648.718-1.697 1.613h-.009v4.321c-4.594-5.657-11.837-8.006-19.098-8.006-16.509 0-29.892 13.382-29.892 29.891 0 16.508 13.383 29.891 29.892 29.891 7.261 0 15.176-2.817 19.097-8.006v.009zm-19.07-2.464c-10.499 0-19.009-8.699-19.009-19.43s8.51-19.43 19.009-19.43c10.498 0 19.009 8.699 19.009 19.43s-8.511 19.429-19.009 19.429zm97.15 4.291-.003-27.512c0-15.509-9.784-25.973-25.388-25.973-7.447 0-13.54 4.307-15.696 8.007v-.052l-.013.042c-.005-3.743-3.041-5.924-6.785-5.924h-2.407c-.939 0-1.706.77-1.706 1.708v53.172h.01c.049.896.79 1.614 1.696 1.614h7.497c.115 0 .228-.013.336-.033.05-.011.096-.031.144-.045.058-.016.115-.03.167-.052.069-.028.128-.065.191-.1.03-.018.062-.031.092-.05.073-.05.143-.106.209-.166.011-.012.025-.019.035-.029.313-.299.5-.706.522-1.139h.012v-31.407c0-8.33 6.752-15.083 15.083-15.083 8.329 0 15.083 6.753 15.083 15.083l.005 26.254.003-.01c0 .024.005.048.005.072v5.091h.01c.049.896.789 1.614 1.696 1.614h7.497c.115 0 .226-.013.336-.033.045-.01.086-.029.128-.039.062-.018.124-.035.184-.058.061-.025.117-.061.174-.094.036-.018.074-.033.107-.056.07-.047.134-.1.196-.155.016-.013.033-.025.05-.041.069-.067.131-.142.19-.219.197-.266.312-.583.331-.914l.001-.005h.009v-3.468zm58.467-1.827c0 1.778 3.046 6.776 6.783 6.776h2.421c.937 0 1.706-.768 1.706-1.705v-53.171h-.009c-.024-.434-.214-.843-.529-1.143s-.733-.468-1.168-.47h-7.496c-.435.002-.854.169-1.169.469-.316.3-.505.709-.529 1.144h-.01v4.321c-4.595-5.657-11.836-8.006-19.1-8.006-16.506 0-29.889 13.382-29.889 29.891 0 16.508 13.383 29.891 29.889 29.891 7.264 0 15.178-2.817 19.097-8.006zm-19.068-2.464c-10.5 0-19.009-8.699-19.009-19.43s8.509-19.43 19.009-19.43c10.495 0 19.005 8.699 19.005 19.43s-8.51 19.429-19.005 19.429z" fill="#283343"/><path d="m234.81 153.937c-14.469 0-26.196 11.727-26.196 26.193 0 14.467 11.727 26.197 26.196 26.197 14.466 0 26.193-11.73 26.193-26.197 0-14.466-11.727-26.193-26.193-26.193zm-68.056.001c-14.466.001-26.194 11.726-26.194 26.193 0 14.466 11.728 26.194 26.194 26.194 14.468 0 26.196-11.728 26.196-26.194 0-14.467-11.728-26.193-26.197-26.193zm60.222-32.744c0 14.466-11.727 26.197-26.193 26.197-14.469 0-26.196-11.731-26.196-26.197s11.727-26.194 26.196-26.194c14.466 0 26.191 11.728 26.191 26.194z" fill="url(#a)"/></svg>