<svg width="121" height="20" fill="none" xmlns="http://www.w3.org/2000/svg"><path d="M113.84 9.414c-1.15 0-1.81.828-1.81 2.348s.662 2.348 1.81 2.348c1.148 0 1.799-.827 1.799-2.348 0-1.52-.662-2.348-1.799-2.348Z" fill="#6200EA"/><path d="M119.396 3.684H77.021a1.508 1.508 0 0 0-1.513 1.509v13.072a1.509 1.509 0 0 0 1.51 1.509h42.375a1.513 1.513 0 0 0 1.397-.931 1.51 1.51 0 0 0 .115-.578V5.193a1.509 1.509 0 0 0-1.509-1.51Zm-36.784 7.498c1.84.344 2.534.91 2.534 2.048 0 1.282-1.168 2.048-2.802 2.048-1.551 0-2.43-.445-3.01-1.273l.849-1.013c.537.89 1.19 1.117 2.108 1.117.88 0 1.356-.28 1.356-.797 0-.372-.361-.59-1.495-.817-1.897-.382-2.621-.962-2.621-2.1 0-1.21 1.024-2.151 2.792-2.151 1.272 0 2.14.403 2.834 1.314l-.983.962c-.352-.735-.92-1.107-1.839-1.107-.857 0-1.292.362-1.292.848-.002.455.37.703 1.57.92Zm9.072-1.686h-2.286v5.674H87.97V9.496h-2.298v-1.15h6.008l.004 1.15Zm6.895 2.988c0 1.862-1.013 2.793-2.917 2.793-1.903 0-2.914-.93-2.914-2.792V8.347h1.427v4.076c0 1.15.486 1.686 1.494 1.686s1.48-.538 1.48-1.686V8.347h1.437l-.007 4.137Zm4.307 2.686h-2.644V8.347h2.644c2.141 0 3.361 1.231 3.361 3.414 0 2.182-1.22 3.409-3.361 3.409Zm6.227 0h-1.424V8.347h1.427l-.003 6.823Zm4.727.103c-2.028 0-3.29-1.324-3.29-3.517 0-2.193 1.265-3.517 3.29-3.517 2.025 0 3.279 1.324 3.279 3.517 0 2.193-1.252 3.522-3.279 3.522v-.005Z" fill="#6200EA"/><path d="M102.813 9.484h-1.137v4.552h1.137c1.304 0 1.954-.805 1.954-2.276 0-1.471-.65-2.276-1.954-2.276ZM16.567 7.863a.66.66 0 0 1 .652-.652h.893a.66.66 0 0 1 .651.652v6.371c0 1.24.278 2.164.833 2.776.556.611 1.364.918 2.425.92 1.015 0 1.811-.307 2.39-.92.578-.613.87-1.538.873-2.776V7.863a.661.661 0 0 1 .652-.652h.893a.657.657 0 0 1 .652.652V19.11a.657.657 0 0 1-.652.651h-.893a.662.662 0 0 1-.652-.651v-.749c-.361.451-.803.832-1.303 1.122-.566.345-1.34.517-2.322.517a5.574 5.574 0 0 1-2.075-.374 4.498 4.498 0 0 1-2.655-2.752 6.678 6.678 0 0 1-.362-2.275V7.863ZM32.327 4.652a.66.66 0 0 1-.651.652h-1.38a.66.66 0 0 1-.644-.652v-1.38a.66.66 0 0 1 .651-.65h1.38a.66.66 0 0 1 .651.65l-.007 1.38Zm-.241 14.457a.66.66 0 0 1-.652.651h-.893a.66.66 0 0 1-.651-.651V7.862a.66.66 0 0 1 .651-.652h.893a.66.66 0 0 1 .652.652v11.247ZM36.696 19.11a.66.66 0 0 1-.652.651h-.893a.66.66 0 0 1-.652-.652V3.277a.66.66 0 0 1 .652-.652h.893a.66.66 0 0 1 .652.652v15.832ZM43.985 6.97c.996 0 1.792.172 2.389.518.52.282.979.663 1.351 1.123V3.277a.66.66 0 0 1 .652-.652h.893a.66.66 0 0 1 .652.652v15.832a.66.66 0 0 1-.652.652h-.893a.66.66 0 0 1-.652-.652v-.748c-.371.478-.842.87-1.379 1.15-.593.326-1.38.489-2.361.489a5.541 5.541 0 0 1-2.112-.399 4.928 4.928 0 0 1-1.702-1.15 5.64 5.64 0 0 1-1.158-1.81 7.33 7.33 0 0 1-.512-2.387 11.841 11.841 0 0 1-.024-.785c0-.28.008-.543.024-.784.034-.82.206-1.627.507-2.39a5.5 5.5 0 0 1 1.163-1.788 5.013 5.013 0 0 1 1.702-1.134 5.54 5.54 0 0 1 2.112-.404Zm3.74 7.554c.017-.242.025-.56.025-.954 0-.395-.008-.713-.025-.953-.048-1.142-.39-2.024-1.025-2.643-.635-.62-1.46-.93-2.474-.93-1.058 0-1.894.339-2.507 1.015-.613.675-.95 1.593-1.013 2.751-.016.45-.016.901 0 1.352.064 1.158.402 2.075 1.013 2.751.612.676 1.447 1.015 2.507 1.018.996 0 1.817-.306 2.462-.92.645-.612.99-1.441 1.037-2.487ZM51.756 12.28c.06-.718.242-1.42.537-2.076a5.876 5.876 0 0 1 1.134-1.69 4.985 4.985 0 0 1 1.677-1.134 5.595 5.595 0 0 1 2.184-.41 6.091 6.091 0 0 1 2.328.421c.666.271 1.262.688 1.746 1.22.5.56.877 1.217 1.11 1.93.267.816.397 1.67.386 2.529v.652a.66.66 0 0 1-.651.651h-8.305v.145c.032 1.094.366 1.935 1 2.522.636.587 1.43.884 2.381.892.885 0 1.548-.125 1.99-.375a4.178 4.178 0 0 0 1.075-.832 1.4 1.4 0 0 1 .338-.266c.138-.056.286-.08.434-.072h.724c.18 0 .353.07.483.193a.47.47 0 0 1 .17.46c-.071.342-.21.666-.411.952-.261.382-.593.71-.978.966-.49.328-1.027.58-1.593.748a7.414 7.414 0 0 1-2.232.294 5.365 5.365 0 0 1-2.172-.423 5.218 5.218 0 0 1-1.678-1.158 5.777 5.777 0 0 1-1.15-1.738 6.845 6.845 0 0 1-.53-2.184c-.08-.737-.078-1.48.003-2.218Zm2.148.072h6.78v-.073c0-.981-.309-1.766-.929-2.353-.62-.588-1.444-.882-2.473-.88a3.64 3.64 0 0 0-1.303.229 3.28 3.28 0 0 0-1.062.652c-.31.288-.557.637-.724 1.026-.181.42-.28.87-.291 1.326l.002.073ZM70.944 7.21a.66.66 0 0 1 .657.653v.772a.66.66 0 0 1-.652.652h-1.405c-1.847 0-2.77.925-2.77 2.775v7.048a.66.66 0 0 1-.652.651h-.893a.66.66 0 0 1-.651-.651V7.863a.66.66 0 0 1 .651-.652h.893a.66.66 0 0 1 .652.652v.748c.283-.45.68-.816 1.15-1.062.449-.225 1.036-.338 1.761-.338h1.258Z" fill="#6200EA"/><path fill-rule="evenodd" clip-rule="evenodd" d="M7.957 0H0v19.772h8.441l.15-.005.148-.006.147-.008.146-.012.144-.013.143-.015.142-.019.14-.02.138-.023.137-.026.136-.027.134-.031.132-.032.131-.035.129-.038.128-.039.126-.042.124-.045.122-.046.12-.05.12-.051.117-.053.115-.057.114-.058.11-.061.11-.063.108-.065.105-.067.104-.07.102-.073.099-.075.098-.076.095-.079.093-.081.09-.084.09-.085.087-.089.084-.09.082-.093.08-.094.078-.098.074-.098.073-.101.071-.105.068-.106.066-.108.062-.11.06-.112.06-.115.054-.117.053-.12.05-.12.047-.123.044-.125.043-.128.04-.13.036-.132.034-.134.031-.136.028-.14.026-.14.022-.142.02-.145.017-.147.014-.148.01-.152.008-.153.005-.155v-.157l-.003-.194-.008-.191-.013-.185-.019-.18-.024-.175-.03-.17-.033-.166-.038-.16-.042-.156-.046-.152-.051-.147-.055-.142-.058-.138-.062-.134-.064-.128-.068-.125-.071-.121-.074-.117-.076-.113-.079-.108-.08-.105-.084-.1-.084-.098-.088-.094-.087-.09-.09-.085-.09-.083-.092-.08-.093-.075-.093-.074-.094-.069-.094-.065-.094-.064-.094-.06-.188-.11-.185-.1-.181-.09.084-.04.174-.096.18-.114.182-.13.092-.072.092-.075.092-.08.092-.084.091-.089.09-.092.09-.096.088-.101.086-.104.084-.109.082-.113.08-.116.077-.12.075-.124.072-.13.068-.131.064-.136.061-.14.058-.145.051-.147.049-.152.043-.155.04-.159.031-.163.028-.165.022-.171.016-.174.01-.177.004-.18-.002-.145-.004-.144-.007-.141-.009-.14-.013-.138-.015-.137-.017-.135-.02-.133-.024-.132-.026-.13-.027-.129-.032-.127-.034-.126-.036-.123-.039-.121-.041-.12-.044-.118-.047-.118-.048-.113-.053-.114-.054-.11-.056-.11-.06-.108-.061-.104-.064-.105-.067-.1-.069-.1-.072-.099-.074-.095-.077-.094-.08-.092-.08-.09-.084-.088-.086-.085-.088-.084-.091-.082-.093-.08-.097-.077-.098-.075-.1-.074-.102-.07-.106-.07-.106-.066-.11-.065-.111-.062-.114-.06-.117-.058-.118-.055-.121-.053-.123-.052-.124-.048-.128-.046-.13-.044-.13-.041-.135-.04-.136-.036L9.94.218 9.8.186l-.142-.03L9.514.13 9.367.106 9.219.084l-.151-.02-.153-.017L8.76.033 8.604.021 8.445.01l-.16-.005L8.121 0 7.957 0Z" fill="#6200EA"/></svg>