<svg width="31" height="31" viewBox="0 0 31 31" fill="none" xmlns="http://www.w3.org/2000/svg">
<path d="M28.375 6.82812H5.625C5.14102 6.82812 4.75 7.21914 4.75 7.70313V21.2656C4.75 21.7496 5.14102 22.1406 5.625 22.1406H16.0156V25.2031H11.3125C11.0719 25.2031 10.875 25.4 10.875 25.6406V26.9531C10.875 27.0734 10.9734 27.1719 11.0938 27.1719H22.9063C23.0266 27.1719 23.125 27.0734 23.125 26.9531V25.6406C23.125 25.4 22.9281 25.2031 22.6875 25.2031H17.9844V22.1406H28.375C28.859 22.1406 29.25 21.7496 29.25 21.2656V7.70313C29.25 7.21914 28.859 6.82812 28.375 6.82812ZM27.2813 20.1719H6.71875V8.79688H27.2813V20.1719Z" fill="#3C3E49"/>
<rect width="14" height="15" transform="translate(0.5)" fill="white"/>
<path d="M10.6719 0.847461H4.32817C3.84556 0.847461 3.45317 1.23984 3.45317 1.72246V12.2225C3.45317 12.7051 3.84556 13.0975 4.32817 13.0975H10.6719C11.1545 13.0975 11.5469 12.7051 11.5469 12.2225V1.72246C11.5469 1.23984 11.1545 0.847461 10.6719 0.847461ZM10.5625 12.1131H4.43755V1.83184H10.5625V12.1131ZM6.95317 10.7186C6.95317 10.8636 7.01079 11.0027 7.11335 11.1053C7.21591 11.2078 7.35501 11.2654 7.50005 11.2654C7.64509 11.2654 7.78419 11.2078 7.88675 11.1053C7.98931 11.0027 8.04692 10.8636 8.04692 10.7186C8.04692 10.5735 7.98931 10.4344 7.88675 10.3319C7.78419 10.2293 7.64509 10.1717 7.50005 10.1717C7.35501 10.1717 7.21591 10.2293 7.11335 10.3319C7.01079 10.4344 6.95317 10.5735 6.95317 10.7186Z" fill="#3C3E49"/>
<path fill-rule="evenodd" clip-rule="evenodd" d="M4.32817 0.647461H10.6719C11.265 0.647461 11.7469 1.12939 11.7469 1.72246V12.2225C11.7469 12.8155 11.265 13.2975 10.6719 13.2975H4.32817C3.7351 13.2975 3.25317 12.8155 3.25317 12.2225V1.72246C3.25317 1.12939 3.7351 0.647461 4.32817 0.647461ZM4.63755 11.9131V2.03184H10.3625V11.9131H4.63755ZM6.97193 11.2467C6.83186 11.1066 6.75317 10.9166 6.75317 10.7186C6.75317 10.5205 6.83186 10.3305 6.97193 10.1904C7.11199 10.0504 7.30197 9.97168 7.50005 9.97168C7.69813 9.97168 7.8881 10.0504 8.02817 10.1904C8.16824 10.3305 8.24692 10.5205 8.24692 10.7186C8.24692 10.9166 8.16824 11.1066 8.02817 11.2467C7.8881 11.3867 7.69813 11.4654 7.50005 11.4654C7.30197 11.4654 7.11199 11.3867 6.97193 11.2467ZM4.32817 0.847461H10.6719C11.1545 0.847461 11.5469 1.23984 11.5469 1.72246V12.2225C11.5469 12.7051 11.1545 13.0975 10.6719 13.0975H4.32817C3.84556 13.0975 3.45317 12.7051 3.45317 12.2225V1.72246C3.45317 1.23984 3.84556 0.847461 4.32817 0.847461ZM10.5625 12.1131V1.83184H4.43755V12.1131H10.5625ZM7.11335 11.1053C7.01079 11.0027 6.95317 10.8636 6.95317 10.7186C6.95317 10.5735 7.01079 10.4344 7.11335 10.3319C7.21591 10.2293 7.35501 10.1717 7.50005 10.1717C7.64509 10.1717 7.78419 10.2293 7.88675 10.3319C7.98931 10.4344 8.04692 10.5735 8.04692 10.7186C8.04692 10.8636 7.98931 11.0027 7.88675 11.1053C7.78419 11.2078 7.64509 11.2654 7.50005 11.2654C7.35501 11.2654 7.21591 11.2078 7.11335 11.1053Z" fill="#3C3E49"/>
</svg>
