<svg width="121" height="20" xmlns="http://www.w3.org/2000/svg" fill="none">

 <g>
  <title>Layer 1</title>
  <path id="svg_1" fill="#ffffff" d="m113.84,9.414c-1.15,0 -1.81,0.828 -1.81,2.348s0.662,2.348 1.81,2.348c1.148,0 1.799,-0.827 1.799,-2.348c0,-1.52 -0.662,-2.348 -1.799,-2.348z"/>
  <path id="svg_2" fill="#ffffff" d="m119.396,3.684l-42.375,0a1.508,1.508 0 0 0 -1.513,1.509l0,13.072a1.509,1.509 0 0 0 1.51,1.509l42.375,0a1.513,1.513 0 0 0 1.397,-0.931a1.51,1.51 0 0 0 0.115,-0.578l0,-13.072a1.509,1.509 0 0 0 -1.509,-1.51l0,0.001zm-36.784,7.498c1.84,0.344 2.534,0.91 2.534,2.048c0,1.138 -1.168,2.048 -2.802,2.048c-1.551,0 -2.43,-0.445 -3.01,-1.273l0.849,-1.013c0.537,0.89 1.19,1.117 2.108,1.117c0.88,0 1.356,-0.28 1.356,-0.797c0,-0.372 -0.361,-0.59 -1.495,-0.817c-1.897,-0.382 -2.621,-0.962 -2.621,-2.1c0,-1.21 1.024,-2.151 2.792,-2.151c1.272,0 2.14,0.403 2.834,1.314l-0.983,0.962c-0.352,-0.735 -0.92,-1.107 -1.839,-1.107c-0.857,0 -1.292,0.362 -1.292,0.848c-0.002,0.455 0.37,0.703 1.57,0.92l-0.001,0.001zm9.072,-1.686l-2.286,0l0,5.674l-1.428,0l0,-5.674l-2.298,0l0,-1.15l6.008,0l0.004,1.15zm6.895,2.988c0,1.862 -1.013,2.793 -2.917,2.793c-1.903,0 -2.914,-0.93 -2.914,-2.792l0,-4.138l1.427,0l0,4.076c0,1.15 0.486,1.686 1.494,1.686s1.48,-0.538 1.48,-1.686l0,-4.076l1.437,0l-0.007,4.137zm4.307,2.686l-2.644,0l0,-6.823l2.644,0c2.141,0 3.361,1.231 3.361,3.414c0,2.182 -1.22,3.409 -3.361,3.409zm6.227,0l-1.424,0l0,-6.823l1.427,0l-0.003,6.823zm4.727,0.103c-2.028,0 -3.29,-1.324 -3.29,-3.517c0,-2.193 1.265,-3.517 3.29,-3.517c2.025,0 3.279,1.324 3.279,3.517c0,2.193 -1.252,3.522 -3.279,3.522l0,-0.005z"/>
  <path id="svg_3" fill="#ffffff" d="m102.813,9.484l-1.137,0l0,4.552l1.137,0c1.304,0 1.954,-0.805 1.954,-2.276c0,-1.471 -0.65,-2.276 -1.954,-2.276zm-86.246,-1.621a0.66,0.66 0 0 1 0.652,-0.652l0.893,0a0.66,0.66 0 0 1 0.651,0.652l0,6.371c0,1.24 0.278,2.164 0.833,2.776c0.556,0.611 1.364,0.918 2.425,0.92c1.015,0 1.811,-0.307 2.39,-0.92c0.578,-0.613 0.87,-1.538 0.873,-2.776l0,-6.371a0.661,0.661 0 0 1 0.652,-0.652l0.893,0a0.657,0.657 0 0 1 0.652,0.652l0,11.247a0.657,0.657 0 0 1 -0.652,0.651l-0.893,0a0.662,0.662 0 0 1 -0.652,-0.651l0,-0.749c-0.361,0.451 -0.803,0.832 -1.303,1.122c-0.566,0.345 -1.34,0.517 -2.322,0.517a5.574,5.574 0 0 1 -2.075,-0.374a4.498,4.498 0 0 1 -2.655,-2.752a6.678,6.678 0 0 1 -0.362,-2.275l0,-6.736zm15.76,-3.211a0.66,0.66 0 0 1 -0.651,0.652l-1.38,0a0.66,0.66 0 0 1 -0.644,-0.652l0,-1.38a0.66,0.66 0 0 1 0.651,-0.65l1.38,0a0.66,0.66 0 0 1 0.651,0.65l-0.007,1.38zm-0.241,14.457a0.66,0.66 0 0 1 -0.652,0.651l-0.893,0a0.66,0.66 0 0 1 -0.651,-0.651l0,-11.247a0.66,0.66 0 0 1 0.651,-0.652l0.893,0a0.66,0.66 0 0 1 0.652,0.652l0,11.247zm4.61,0.001a0.66,0.66 0 0 1 -0.652,0.651l-0.893,0a0.66,0.66 0 0 1 -0.652,-0.652l0,-15.832a0.66,0.66 0 0 1 0.652,-0.652l0.893,0a0.66,0.66 0 0 1 0.652,0.652l0,15.832l0,0.001zm7.289,-12.14c0.996,0 1.792,0.172 2.389,0.518c0.52,0.282 0.979,0.663 1.351,1.123l0,-5.334a0.66,0.66 0 0 1 0.652,-0.652l0.893,0a0.66,0.66 0 0 1 0.652,0.652l0,15.832a0.66,0.66 0 0 1 -0.652,0.652l-0.893,0a0.66,0.66 0 0 1 -0.652,-0.652l0,-0.748c-0.371,0.478 -0.842,0.87 -1.379,1.15c-0.593,0.326 -1.38,0.489 -2.361,0.489a5.541,5.541 0 0 1 -2.112,-0.399a4.928,4.928 0 0 1 -1.702,-1.15a5.64,5.64 0 0 1 -1.158,-1.81a7.33,7.33 0 0 1 -0.512,-2.387a11.841,11.841 0 0 1 -0.024,-0.785c0,-0.28 0.008,-0.543 0.024,-0.784c0.034,-0.82 0.206,-1.627 0.507,-2.39a5.5,5.5 0 0 1 1.163,-1.788a5.013,5.013 0 0 1 1.702,-1.134a5.54,5.54 0 0 1 2.112,-0.404l0,0.001zm3.74,7.554c0.017,-0.242 0.025,-0.56 0.025,-0.954c0,-0.395 -0.008,-0.713 -0.025,-0.953c-0.048,-1.142 -0.39,-2.024 -1.025,-2.643c-0.635,-0.62 -1.46,-0.93 -2.474,-0.93c-1.058,0 -1.894,0.339 -2.507,1.015c-0.613,0.675 -0.95,1.593 -1.013,2.751c-0.016,0.45 -0.016,0.901 0,1.352c0.064,1.158 0.402,2.075 1.013,2.751c0.612,0.676 1.447,1.015 2.507,1.018c0.996,0 1.817,-0.306 2.462,-0.92c0.645,-0.612 0.99,-1.441 1.037,-2.487zm4.031,-2.244c0.06,-0.718 0.242,-1.42 0.537,-2.076a5.876,5.876 0 0 1 1.134,-1.69a4.985,4.985 0 0 1 1.677,-1.134a5.595,5.595 0 0 1 2.184,-0.41a6.091,6.091 0 0 1 2.328,0.421c0.666,0.271 1.262,0.688 1.746,1.22c0.5,0.56 0.877,1.217 1.11,1.93c0.267,0.816 0.397,1.67 0.386,2.529l0,0.652a0.66,0.66 0 0 1 -0.651,0.651l-8.305,0l0,0.145c0.032,1.094 0.366,1.935 1,2.522c0.636,0.587 1.43,0.884 2.381,0.892c0.885,0 1.548,-0.125 1.99,-0.375a4.178,4.178 0 0 0 1.075,-0.832a1.4,1.4 0 0 1 0.338,-0.266c0.138,-0.056 0.286,-0.08 0.434,-0.072l0.724,0c0.18,0 0.353,0.07 0.483,0.193a0.47,0.47 0 0 1 0.17,0.46c-0.071,0.342 -0.21,0.666 -0.411,0.952c-0.261,0.382 -0.593,0.71 -0.978,0.966c-0.49,0.328 -1.027,0.58 -1.593,0.748a7.414,7.414 0 0 1 -2.232,0.294a5.365,5.365 0 0 1 -2.172,-0.423a5.218,5.218 0 0 1 -1.678,-1.158a5.777,5.777 0 0 1 -1.15,-1.738a6.845,6.845 0 0 1 -0.53,-2.184c-0.08,-0.737 -0.078,-1.48 0.003,-2.218l0,0.001zm2.148,0.072l6.78,0l0,-0.073c0,-0.981 -0.309,-1.766 -0.929,-2.353c-0.62,-0.588 -1.444,-0.882 -2.473,-0.88a3.64,3.64 0 0 0 -1.303,0.229a3.28,3.28 0 0 0 -1.062,0.652c-0.31,0.288 -0.557,0.637 -0.724,1.026c-0.181,0.42 -0.28,0.87 -0.291,1.326l0.002,0.073zm17.04,-5.142a0.66,0.66 0 0 1 0.657,0.653l0,0.772a0.66,0.66 0 0 1 -0.652,0.652l-1.405,0c-1.847,0 -2.77,0.925 -2.77,2.775l0,7.048a0.66,0.66 0 0 1 -0.652,0.651l-0.893,0a0.66,0.66 0 0 1 -0.651,-0.651l0,-11.247a0.66,0.66 0 0 1 0.651,-0.652l0.893,0a0.66,0.66 0 0 1 0.652,0.652l0,0.748c0.283,-0.45 0.68,-0.816 1.15,-1.062c0.449,-0.225 1.036,-0.338 1.761,-0.338l1.258,0l0.001,-0.001z"/>
  <path stroke="#ffffff" id="svg_4" fill="#ffffff" d="m7.957,0l-7.957,0l0,19.772l8.441,0l0.15,-0.005l0.148,-0.006l0.147,-0.008l0.146,-0.012l0.144,-0.013l0.143,-0.015l0.142,-0.019l0.14,-0.02l0.138,-0.023l0.137,-0.026l0.136,-0.027l0.134,-0.031l0.132,-0.032l0.131,-0.035l0.129,-0.038l0.128,-0.039l0.126,-0.042l0.124,-0.045l0.122,-0.046l0.12,-0.05l0.12,-0.051l0.117,-0.053l0.115,-0.057l0.114,-0.058l0.11,-0.061l0.11,-0.063l0.108,-0.065l0.105,-0.067l0.104,-0.07l0.102,-0.073l0.099,-0.075l0.098,-0.076l0.095,-0.079l0.093,-0.081l0.09,-0.084l0.09,-0.085l0.087,-0.089l0.084,-0.09l0.082,-0.093l0.08,-0.094l0.078,-0.098l0.074,-0.098l0.073,-0.101l0.071,-0.105l0.068,-0.106l0.066,-0.108l0.062,-0.11l0.06,-0.112l0.06,-0.115l0.054,-0.117l0.053,-0.12l0.05,-0.12l0.047,-0.123l0.044,-0.125l0.043,-0.128l0.04,-0.13l0.036,-0.132l0.034,-0.134l0.031,-0.136l0.028,-0.14l0.026,-0.14l0.022,-0.142l0.02,-0.145l0.017,-0.147l0.014,-0.148l0.01,-0.152l0.008,-0.153l0.005,-0.155l0,-0.157l-0.003,-0.194l-0.008,-0.191l-0.013,-0.185l-0.019,-0.18l-0.024,-0.175l-0.03,-0.17l-0.033,-0.166l-0.038,-0.16l-0.042,-0.156l-0.046,-0.152l-0.051,-0.147l-0.055,-0.142l-0.058,-0.138l-0.062,-0.134l-0.064,-0.128l-0.068,-0.125l-0.071,-0.121l-0.074,-0.117l-0.076,-0.113l-0.079,-0.108l-0.08,-0.105l-0.084,-0.1l-0.084,-0.098l-0.088,-0.094l-0.087,-0.09l-0.09,-0.085l-0.09,-0.083l-0.092,-0.08l-0.093,-0.075l-0.093,-0.074l-0.094,-0.069l-0.094,-0.065l-0.094,-0.064l-0.094,-0.06l-0.188,-0.11l-0.185,-0.1l-0.181,-0.09l0.084,-0.04l0.174,-0.096l0.18,-0.114l0.182,-0.13l0.092,-0.072l0.092,-0.075l0.092,-0.08l0.092,-0.084l0.091,-0.089l0.09,-0.092l0.09,-0.096l0.088,-0.101l0.086,-0.104l0.084,-0.109l0.082,-0.113l0.08,-0.116l0.077,-0.12l0.075,-0.124l0.072,-0.13l0.068,-0.131l0.064,-0.136l0.061,-0.14l0.058,-0.145l0.051,-0.147l0.049,-0.152l0.043,-0.155l0.04,-0.159l0.031,-0.163l0.028,-0.165l0.022,-0.171l0.016,-0.174l0.01,-0.177l0.004,-0.18l-0.002,-0.145l-0.004,-0.144l-0.007,-0.141l-0.009,-0.14l-0.013,-0.138l-0.015,-0.137l-0.017,-0.135l-0.02,-0.133l-0.024,-0.132l-0.026,-0.13l-0.027,-0.129l-0.032,-0.127l-0.034,-0.126l-0.036,-0.123l-0.039,-0.121l-0.041,-0.12l-0.044,-0.118l-0.047,-0.118l-0.048,-0.113l-0.053,-0.114l-0.054,-0.11l-0.056,-0.11l-0.06,-0.108l-0.061,-0.104l-0.064,-0.105l-0.067,-0.1l-0.069,-0.1l-0.072,-0.099l-0.074,-0.095l-0.077,-0.094l-0.08,-0.092l-0.08,-0.09l-0.084,-0.088l-0.086,-0.085l-0.088,-0.084l-0.091,-0.082l-0.093,-0.08l-0.097,-0.077l-0.098,-0.075l-0.1,-0.074l-0.102,-0.07l-0.106,-0.07l-0.106,-0.066l-0.11,-0.065l-0.111,-0.062l-0.114,-0.06l-0.117,-0.058l-0.118,-0.055l-0.121,-0.053l-0.123,-0.052l-0.124,-0.048l-0.128,-0.046l-0.13,-0.044l-0.13,-0.041l-0.135,-0.04l-0.136,-0.036l-0.138,-0.035l-0.14,-0.032l-0.142,-0.03l-0.144,-0.026l-0.147,-0.024l-0.148,-0.022l-0.151,-0.02l-0.153,-0.017l-0.155,-0.014l-0.156,-0.012l-0.159,-0.011l-0.16,-0.005l-0.164,-0.005l-0.164,0z" clip-rule="evenodd" fill-rule="evenodd"/>
  <path id="svg_5" d="m81.58784,12.24299l0.56913,0l0.17587,-0.54067l0.17587,0.54067l0.56913,0l-0.46044,0.33415l0.17588,0.54067l-0.46044,-0.33416l-0.46044,0.33416l0.17588,-0.54067l-0.46044,-0.33415z" fill="#ffffff"/>
  <path id="svg_6" d="m82.20969,9.91108l0.56913,0l0.17587,-0.54067l0.17587,0.54067l0.56913,0l-0.46044,0.33415l0.17588,0.54067l-0.46044,-0.33416l-0.46044,0.33416l0.17588,-0.54067l-0.46044,-0.33415z" fill="#ffffff"/>
 </g>
</svg>